PathFileType	4	(X/Y/Z)	./resultDataOpenSim/trcMotMarkerGrf/sub10/qtm-03-04.trc
DataRate	CameraRate	NumFrames	NumMarkers	Units	OrigDataRate	OrigDataStartFrame	OrigNumFrames
250.000000	250.000000	12	24	m	250.000000	196	520
Frame#	Time	L.Toe.Tip			R.Toe.Tip			L.Ankle.Lat			R.Ankle.Lat			L.Ankle.Med			R.Ankle.Med			L.Heel			R.Heel			L.Knee.Lat			R.Knee.Lat			L.Knee.Med			R.Knee.Med			L.Thigh.Upper			R.Thigh.Upper			L.ASIS			R.ASIS			V.Sacral			L.Acromium			R.Acromium			C7			L.Elbow			R.Elbow			L.Wrist.Lat			R.Wrist.Lat
		X1	Y1	Z1	X2	Y2	Z2	X3	Y3	Z3	X4	Y4	Z4	X5	Y5	Z5	X6	Y6	Z6	X7	Y7	Z7	X8	Y8	Z8	X9	Y9	Z9	X10	Y10	Z10	X11	Y11	Z11	X12	Y12	Z12	X13	Y13	Z13	X14	Y14	Z14	X15	Y15	Z15	X16	Y16	Z16	X17	Y17	Z17	X18	Y18	Z18	X19	Y19	Z19	X20	Y20	Z20	X21	Y21	Z21	X22	Y22	Z22	X23	Y23	Z23	X24	Y24	Z24

196	0.78	0.018427589	-0.0065703527	-0.086352108	-0.70204515	0.039003621	0.046942295	-0.11912358	0.024907892	-0.13142982	-0.81146084	0.12584948	0.078055939	-0.11741411	0.048911475	-0.049946736	-0.77372447	0.13255351	-0.0040788528	-0.18060889	-0.002394194	-0.088485524	-0.86201656	0.13007194	0.025578038	-0.1484148	0.41367894	-0.15607495	-0.52833873	0.40962626	0.10764774	-0.13296683	0.39367247	-0.035730888	-0.49262965	0.39709256	-0.016101	-0.26004778	0.78517178	-0.2054029	-0.40511691	0.7926819	0.15954636	-0.23231056	0.890135	-0.1156047	-0.29761948	0.87392416	0.1220817	-0.4522933	0.89193054	-0.06586254	-0.35272659	1.3526521	-0.17227322	-0.37165466	1.3503222	0.15212804	-0.44797219	1.3740541	-0.020245115	-0.50691543	1.0559909	-0.23897433	-0.34615485	0.99298294	0.21625462	-0.4689479	0.82216992	-0.2862697	-0.10373494	0.92493211	0.21198892
197	0.784	0.018596812	-0.0068138243	-0.086373932	-0.70125456	0.038876103	0.046789857	-0.1189579	0.023513654	-0.13162772	-0.80727594	0.12967589	0.078253656	-0.11777732	0.047416016	-0.050000982	-0.76890933	0.13503429	-0.0034528806	-0.18090927	-0.0042485725	-0.089487476	-0.85733643	0.13526345	0.025441255	-0.14352586	0.41273983	-0.15573397	-0.52009738	0.40874525	0.10765889	-0.12895335	0.39262229	-0.035444156	-0.4843832	0.39579456	-0.015861722	-0.25310241	0.78490307	-0.2060398	-0.3973627	0.79148033	0.15912712	-0.22544333	0.88991475	-0.11651672	-0.28988001	0.87301124	0.1209732	-0.44530405	0.89149487	-0.066270006	-0.34656276	1.3519788	-0.1734574	-0.36575815	1.3500401	0.15103339	-0.44187959	1.3733486	-0.021523503	-0.50007487	1.0550993	-0.23973112	-0.34148814	0.99240456	0.21481778	-0.46303954	0.82116683	-0.28717095	-0.099094735	0.92433533	0.21118568
198	0.788	0.018632092	-0.0070277229	-0.086338663	-0.70039929	0.038722544	0.046594976	-0.11884773	0.022097939	-0.13189901	-0.80270842	0.1335827	0.078363253	-0.11828015	0.045979396	-0.050134575	-0.76363662	0.13751021	-0.0028171265	-0.18118664	-0.0060913505	-0.090455927	-0.85225204	0.14056267	0.025465747	-0.13855908	0.41190173	-0.15538521	-0.51150008	0.40781557	0.10774078	-0.12523829	0.39158367	-0.035102333	-0.47581116	0.39440313	-0.015491568	-0.24618311	0.78468765	-0.20670433	-0.38955888	0.79026809	0.1587202	-0.21858591	0.88971497	-0.11744443	-0.28216625	0.87215868	0.11983403	-0.4395047	0.89145341	-0.065945208	-0.34038286	1.3513411	-0.17464673	-0.35978196	1.3497806	0.14991389	-0.4357555	1.3727018	-0.022786126	-0.49320558	1.0542179	-0.24052552	-0.33692126	0.99187679	0.213418	-0.4569803	0.82019077	-0.28806951	-0.094559769	0.92365547	0.21042801
199	0.792	0.018540726	-0.0072122035	-0.086223362	-0.69946241	0.03855445	0.046395718	-0.11883841	0.020704973	-0.13216451	-0.79769616	0.13753338	0.078410648	-0.11891154	0.044618328	-0.050285372	-0.75789977	0.13995593	-0.0021174289	-0.18144843	-0.0078678802	-0.091303147	-0.84662688	0.14591964	0.025465378	-0.13347766	0.41112901	-0.15504794	-0.50255537	0.4068411	0.10789604	-0.1217513	0.39054075	-0.03469907	-0.46688288	0.39288765	-0.014994236	-0.23928608	0.78451703	-0.20739801	-0.38172304	0.78903824	0.15833001	-0.21178313	0.88953175	-0.11837968	-0.274566	0.8714	0.1187045	-0.4345979	0.89170854	-0.065051111	-0.33418738	1.350734	-0.1758327	-0.3537249	1.349539	0.14876958	-0.4296074	1.3721144	-0.024029538	-0.48632528	1.0533529	-0.24133864	-0.33239417	0.99138631	0.21201569	-0.45077375	0.81924532	-0.28895058	-0.090125844	0.92289396	0.20971087
200	0.796	0.018395437	-0.007370915	-0.086046007	-0.69842645	0.038388503	0.046225309	-0.11889341	0.019411427	-0.13235726	-0.79212109	0.14149262	0.07841359	-0.11954293	0.043402469	-0.05038783	-0.75169365	0.14232189	-0.0013260572	-0.18172024	-0.009437107	-0.092032882	-0.84029783	0.15130092	0.025228617	-0.12830595	0.4103777	-0.15473438	-0.49327069	0.40581934	0.10812043	-0.11843942	0.38947409	-0.034262063	-0.45756847	0.39120893	-0.014393859	-0.23240302	0.78438153	-0.20811138	-0.37386055	0.78778386	0.15794523	-0.20504477	0.88936601	-0.1193159	-0.26714582	0.87074727	0.11761297	-0.43008441	0.8921379	-0.063812853	-0.32798274	1.3501595	-0.17700823	-0.3476055	1.3493222	0.14761401	-0.42344571	1.3715778	-0.025249976	-0.47944848	1.0525138	-0.24208424	-0.32788065	0.99091904	0.21060802	-0.44442551	0.81833071	-0.28979673	-0.085784476	0.92204818	0.20902684
201	0.8	0.018289199	-0.0075130139	-0.085833299	-0.69727949	0.038230803	0.046097274	-0.1189236	0.018296299	-0.13242131	-0.78591788	0.14542467	0.07838271	-0.11999111	0.042409603	-0.050380323	-0.74497321	0.14452155	-0.00047111911	-0.1819919	-0.010687973	-0.092585791	-0.83322383	0.15671061	0.02474215	-0.12313861	0.40960733	-0.15443763	-0.48365657	0.40473873	0.10841352	-0.11527926	0.38837292	-0.033828502	-0.44784323	0.38932809	-0.013720221	-0.2255328	0.78427578	-0.20883024	-0.36597709	0.78649964	0.15754671	-0.19835845	0.88921605	-0.12024783	-0.25984212	0.87015171	0.11651259	-0.42518493	0.89258301	-0.062624865	-0.32178247	1.3496246	-0.17817422	-0.34145535	1.3491339	0.14644937	-0.41727931	1.3710825	-0.026443664	-0.47256317	1.051707	-0.24269865	-0.32339178	0.99047486	0.20920072	-0.43793927	0.81744265	-0.29059602	-0.081524672	0.92110884	0.2083739
202	0.804	0.018279809	-0.0076471799	-0.085608821	-0.69603466	0.038064619	0.046005048	-0.11884074	0.017418031	-0.13231399	-0.77919928	0.14928677	0.078337325	-0.1201183	0.041663772	-0.050212454	-0.73768945	0.14647102	0.00040475124	-0.18222299	-0.011584962	-0.092852989	-0.82552102	0.1621576	0.024152197	-0.11809118	0.40880448	-0.15413317	-0.473731	0.40359042	0.10878938	-0.11226264	0.38724163	-0.03342168	-0.43768655	0.38721634	-0.012996788	-0.21868576	0.78420255	-0.20954856	-0.35808669	0.78517967	0.15712449	-0.19172521	0.88907862	-0.12117342	-0.25252005	0.8695378	0.11531535	-0.4191169	0.89281473	-0.062131451	-0.31558669	1.3491363	-0.1793308	-0.33530221	1.3489621	0.1452543	-0.41111362	1.3706256	-0.027613654	-0.46561393	1.050922	-0.24330405	-0.31895405	0.99007492	0.20779777	-0.43131455	0.8165785	-0.29134759	-0.077340164	0.9200665	0.20775869
203	0.808	0.018371454	-0.007776168	-0.085394677	-0.6947289	0.037859776	0.045934079	-0.11859847	0.016796536	-0.13202562	-0.77216024	0.15304444	0.078307581	-0.11992277	0.041100497	-0.04985946	-0.72990129	0.14817411	0.0012833411	-0.18237323	-0.012162749	-0.092787403	-0.81733866	0.16763022	0.023608955	-0.11321271	0.4079969	-0.15380864	-0.46352502	0.40237175	0.10926367	-0.10937897	0.38609592	-0.033046934	-0.42709164	0.384865	-0.012237912	-0.21188397	0.7841751	-0.21027039	-0.35021394	0.78382019	0.15668742	-0.18516825	0.88895162	-0.12208535	-0.24513679	0.86887729	0.11399036	-0.41169005	0.89258921	-0.062907775	-0.30936674	1.3486994	-0.18047555	-0.32917171	1.3487946	0.14401864	-0.40495788	1.3702038	-0.028787455	-0.45854655	1.0501371	-0.2441139	-0.3145819	0.98974229	0.20640048	-0.42455115	0.81574211	-0.29205826	-0.073237152	0.91892274	0.20718684
204	0.812	0.018535005	-0.0078978223	-0.085207827	-0.69337765	0.037607635	0.045874052	-0.11820513	0.016408877	-0.13159033	-0.76487825	0.1566952	0.078320848	-0.11953156	0.040617885	-0.049345646	-0.72181365	0.1497534	0.0021472251	-0.1824224	-0.012501187	-0.092439723	-0.80876677	0.17311047	0.023192017	-0.10847054	0.40723275	-0.15347928	-0.45308114	0.40107387	0.10983346	-0.10662676	0.38496094	-0.032714063	-0.41607533	0.38229215	-0.011446142	-0.20515082	0.78422115	-0.21099606	-0.34238724	0.78242209	0.15625594	-0.17871868	0.88883141	-0.12297336	-0.23775684	0.86818937	0.11257719	-0.40360346	0.89190277	-0.064669361	-0.30309355	1.3483158	-0.18160878	-0.32308079	1.348638	0.14277565	-0.39883129	1.3698067	-0.03002763	-0.45139318	1.0493524	-0.24512564	-0.31027818	0.98947908	0.20501075	-0.41765216	0.81494117	-0.29273461	-0.069230007	0.9176887	0.2066574
205	0.816	0.018735742	-0.0080097016	-0.085054934	-0.69192611	0.0373703	0.045819143	-0.11771198	0.016202873	-0.13107465	-0.75731701	0.16026346	0.0783983	-0.11909608	0.040172494	-0.048739839	-0.71367566	0.1513897	0.0029566728	-0.1823854	-0.012679547	-0.091921888	-0.79983911	0.17858352	0.022920561	-0.10381179	0.40654538	-0.15316854	-0.44244547	0.39967921	0.11047755	-0.10401802	0.38388013	-0.03245304	-0.40467085	0.37953597	-0.010608782	-0.19850628	0.784381	-0.21171391	-0.33463254	0.78098743	0.15584768	-0.17240515	0.88871514	-0.12384018	-0.23045861	0.86749511	0.11112848	-0.39590475	0.89111952	-0.066334327	-0.29678357	1.3479796	-0.18272725	-0.31701941	1.3485069	0.14157543	-0.39275201	1.3694259	-0.031386734	-0.44425043	1.0485928	-0.24612129	-0.30605261	0.98926723	0.20364236	-0.41062201	0.81418217	-0.29337344	-0.065326403	0.91637634	0.20616677
206	0.82	0.01894658	-0.008111264	-0.084932749	-0.69025296	0.037305779	0.045765344	-0.11718466	0.016115509	-0.13055203	-0.74944123	0.16377797	0.078562532	-0.11873744	0.039783949	-0.048112505	-0.70560783	0.15321124	0.003682901	-0.18230388	-0.012750096	-0.091363951	-0.79058146	0.18402656	0.02278728	-0.099214298	0.40593949	-0.15288496	-0.43166195	0.39817853	0.11117463	-0.10153899	0.38291513	-0.032292734	-0.39290677	0.37663457	-0.0096984373	-0.19197544	0.78469296	-0.21240968	-0.32697278	0.77951877	0.15546863	-0.16623858	0.88860782	-0.12469342	-0.22329153	0.86680549	0.1096807	-0.38920078	0.89069571	-0.06727036	-0.29048708	1.3476836	-0.18382548	-0.31096785	1.3484082	0.14044308	-0.38671677	1.3690709	-0.032818478	-0.43716208	1.0478746	-0.24697121	-0.30192811	0.98908417	0.20233145	-0.4034625	0.81346729	-0.29396202	-0.061520031	0.91499376	0.20571232
207	0.824	0.019148688	-0.0082035925	-0.084833844	-0.68823182	0.037617372	0.045717334	-0.11667364	0.016086986	-0.13007638	-0.74124473	0.16727224	0.078828243	-0.11853973	0.03947247	-0.047514857	-0.69748856	0.1552126	0.0043555325	-0.18221751	-0.012747575	-0.090872348	-0.78102714	0.18941931	0.022782989	-0.094688392	0.40540523	-0.15262101	-0.42076396	0.39658617	0.11191519	-0.099107258	0.38212468	-0.032227471	-0.38080689	0.37361109	-0.0086914946	-0.18558909	0.78517306	-0.21307643	-0.31942415	0.77802577	0.15511386	-0.16020168	0.88852379	-0.1255214	-0.21627547	0.86612988	0.1082544	-0.38340845	0.8908186	-0.067752777	-0.2842346	1.3474293	-0.18490916	-0.30491826	1.3483454	0.13937767	-0.38070144	1.3687685	-0.034189659	-0.43009588	1.0471939	-0.24772652	-0.29792021	0.98892088	0.20111401	-0.39617089	0.81279593	-0.29449384	-0.057799905	0.9135449	0.20529335
